<mxfile host="Electron" agent="Mozilla/5.0 (Windows NT 10.0; Win64; x64) AppleWebKit/537.36 (KHTML, like Gecko) draw.io/24.7.5 Chrome/126.0.6478.183 Electron/31.3.0 Safari/537.36" version="24.7.5">
  <diagram name="Página-1" id="htGelg0nHPY2rPgBUoEC">
    <mxGraphModel dx="1600" dy="967" grid="1" gridSize="10" guides="1" tooltips="1" connect="1" arrows="1" fold="1" page="1" pageScale="1" pageWidth="850" pageHeight="1100" math="0" shadow="0">
      <root>
        <mxCell id="0" />
        <mxCell id="1" parent="0" />
        <mxCell id="RbEDVmLzTa3Dp0QBtbDg-9" style="edgeStyle=orthogonalEdgeStyle;rounded=0;orthogonalLoop=1;jettySize=auto;html=1;exitX=0.5;exitY=1;exitDx=0;exitDy=0;exitPerimeter=0;entryX=0.5;entryY=0;entryDx=0;entryDy=0;" edge="1" parent="1" source="RbEDVmLzTa3Dp0QBtbDg-1" target="RbEDVmLzTa3Dp0QBtbDg-2">
          <mxGeometry relative="1" as="geometry" />
        </mxCell>
        <mxCell id="RbEDVmLzTa3Dp0QBtbDg-1" value="INICIO" style="strokeWidth=2;html=1;shape=mxgraph.flowchart.start_1;whiteSpace=wrap;fillColor=#d80073;fontColor=#ffffff;strokeColor=#A50040;" vertex="1" parent="1">
          <mxGeometry x="190" y="90" width="80" height="40" as="geometry" />
        </mxCell>
        <mxCell id="RbEDVmLzTa3Dp0QBtbDg-10" style="edgeStyle=orthogonalEdgeStyle;rounded=0;orthogonalLoop=1;jettySize=auto;html=1;exitX=0.5;exitY=1;exitDx=0;exitDy=0;entryX=0.5;entryY=0;entryDx=0;entryDy=0;" edge="1" parent="1" source="RbEDVmLzTa3Dp0QBtbDg-2" target="RbEDVmLzTa3Dp0QBtbDg-3">
          <mxGeometry relative="1" as="geometry" />
        </mxCell>
        <mxCell id="RbEDVmLzTa3Dp0QBtbDg-2" value="int i, x, y, dato" style="shape=parallelogram;html=1;strokeWidth=2;perimeter=parallelogramPerimeter;whiteSpace=wrap;rounded=1;arcSize=12;size=0.23;fillColor=#6a00ff;fontColor=#ffffff;strokeColor=#3700CC;" vertex="1" parent="1">
          <mxGeometry x="180" y="150" width="100" height="60" as="geometry" />
        </mxCell>
        <mxCell id="RbEDVmLzTa3Dp0QBtbDg-11" style="edgeStyle=orthogonalEdgeStyle;rounded=0;orthogonalLoop=1;jettySize=auto;html=1;exitX=0.5;exitY=1;exitDx=0;exitDy=0;entryX=0.5;entryY=0;entryDx=0;entryDy=0;" edge="1" parent="1" source="RbEDVmLzTa3Dp0QBtbDg-3" target="RbEDVmLzTa3Dp0QBtbDg-4">
          <mxGeometry relative="1" as="geometry" />
        </mxCell>
        <mxCell id="RbEDVmLzTa3Dp0QBtbDg-3" value="INICIALIZAR LCD" style="rounded=1;whiteSpace=wrap;html=1;absoluteArcSize=1;arcSize=14;strokeWidth=2;fillColor=#1ba1e2;fontColor=#ffffff;strokeColor=#006EAF;" vertex="1" parent="1">
          <mxGeometry x="175" y="230" width="110" height="30" as="geometry" />
        </mxCell>
        <mxCell id="RbEDVmLzTa3Dp0QBtbDg-4" value="LIMPIAR LCD" style="rounded=1;whiteSpace=wrap;html=1;absoluteArcSize=1;arcSize=14;strokeWidth=2;fillColor=#1ba1e2;fontColor=#ffffff;strokeColor=#006EAF;" vertex="1" parent="1">
          <mxGeometry x="175" y="280" width="110" height="30" as="geometry" />
        </mxCell>
        <mxCell id="RbEDVmLzTa3Dp0QBtbDg-13" style="edgeStyle=orthogonalEdgeStyle;rounded=0;orthogonalLoop=1;jettySize=auto;html=1;exitX=0.5;exitY=1;exitDx=0;exitDy=0;exitPerimeter=0;entryX=0.5;entryY=0;entryDx=0;entryDy=0;" edge="1" parent="1" source="RbEDVmLzTa3Dp0QBtbDg-5" target="RbEDVmLzTa3Dp0QBtbDg-6">
          <mxGeometry relative="1" as="geometry" />
        </mxCell>
        <mxCell id="RbEDVmLzTa3Dp0QBtbDg-15" value="SI" style="edgeLabel;html=1;align=center;verticalAlign=middle;resizable=0;points=[];" vertex="1" connectable="0" parent="RbEDVmLzTa3Dp0QBtbDg-13">
          <mxGeometry x="-0.2725" relative="1" as="geometry">
            <mxPoint as="offset" />
          </mxGeometry>
        </mxCell>
        <mxCell id="RbEDVmLzTa3Dp0QBtbDg-5" value="TRUE" style="strokeWidth=2;html=1;shape=mxgraph.flowchart.decision;whiteSpace=wrap;fillColor=#60a917;fontColor=#ffffff;strokeColor=#2D7600;" vertex="1" parent="1">
          <mxGeometry x="185" y="340" width="90" height="60" as="geometry" />
        </mxCell>
        <mxCell id="RbEDVmLzTa3Dp0QBtbDg-8" value="" style="edgeStyle=orthogonalEdgeStyle;rounded=0;orthogonalLoop=1;jettySize=auto;html=1;" edge="1" parent="1" source="RbEDVmLzTa3Dp0QBtbDg-6" target="RbEDVmLzTa3Dp0QBtbDg-7">
          <mxGeometry relative="1" as="geometry" />
        </mxCell>
        <mxCell id="RbEDVmLzTa3Dp0QBtbDg-6" value="LIMPIAR LCD" style="rounded=1;whiteSpace=wrap;html=1;absoluteArcSize=1;arcSize=14;strokeWidth=2;fillColor=#1ba1e2;fontColor=#ffffff;strokeColor=#006EAF;" vertex="1" parent="1">
          <mxGeometry x="175" y="430" width="110" height="30" as="geometry" />
        </mxCell>
        <mxCell id="RbEDVmLzTa3Dp0QBtbDg-23" style="edgeStyle=orthogonalEdgeStyle;rounded=0;orthogonalLoop=1;jettySize=auto;html=1;exitX=0.5;exitY=1;exitDx=0;exitDy=0;entryX=0.5;entryY=0;entryDx=0;entryDy=0;" edge="1" parent="1" source="RbEDVmLzTa3Dp0QBtbDg-7" target="RbEDVmLzTa3Dp0QBtbDg-19">
          <mxGeometry relative="1" as="geometry" />
        </mxCell>
        <mxCell id="RbEDVmLzTa3Dp0QBtbDg-7" value="i=i+1" style="whiteSpace=wrap;html=1;rounded=1;arcSize=14;strokeWidth=2;fillColor=#1ba1e2;fontColor=#ffffff;strokeColor=#006EAF;" vertex="1" parent="1">
          <mxGeometry x="192.5" y="490" width="75" height="30" as="geometry" />
        </mxCell>
        <mxCell id="RbEDVmLzTa3Dp0QBtbDg-12" style="edgeStyle=orthogonalEdgeStyle;rounded=0;orthogonalLoop=1;jettySize=auto;html=1;exitX=0.5;exitY=1;exitDx=0;exitDy=0;entryX=0.5;entryY=0;entryDx=0;entryDy=0;entryPerimeter=0;" edge="1" parent="1" source="RbEDVmLzTa3Dp0QBtbDg-4" target="RbEDVmLzTa3Dp0QBtbDg-5">
          <mxGeometry relative="1" as="geometry" />
        </mxCell>
        <mxCell id="RbEDVmLzTa3Dp0QBtbDg-16" value="FIN" style="strokeWidth=2;html=1;shape=mxgraph.flowchart.start_1;whiteSpace=wrap;fillColor=#d80073;fontColor=#ffffff;strokeColor=#A50040;" vertex="1" parent="1">
          <mxGeometry x="70" y="410" width="80" height="40" as="geometry" />
        </mxCell>
        <mxCell id="RbEDVmLzTa3Dp0QBtbDg-17" style="edgeStyle=orthogonalEdgeStyle;rounded=0;orthogonalLoop=1;jettySize=auto;html=1;exitX=0;exitY=0.5;exitDx=0;exitDy=0;exitPerimeter=0;entryX=0.5;entryY=0;entryDx=0;entryDy=0;entryPerimeter=0;" edge="1" parent="1" source="RbEDVmLzTa3Dp0QBtbDg-5" target="RbEDVmLzTa3Dp0QBtbDg-16">
          <mxGeometry relative="1" as="geometry" />
        </mxCell>
        <mxCell id="RbEDVmLzTa3Dp0QBtbDg-18" value="NO" style="edgeLabel;html=1;align=center;verticalAlign=middle;resizable=0;points=[];" vertex="1" connectable="0" parent="RbEDVmLzTa3Dp0QBtbDg-17">
          <mxGeometry x="-0.4178" relative="1" as="geometry">
            <mxPoint as="offset" />
          </mxGeometry>
        </mxCell>
        <mxCell id="RbEDVmLzTa3Dp0QBtbDg-24" style="edgeStyle=orthogonalEdgeStyle;rounded=0;orthogonalLoop=1;jettySize=auto;html=1;exitX=0.5;exitY=1;exitDx=0;exitDy=0;entryX=0.5;entryY=0;entryDx=0;entryDy=0;" edge="1" parent="1" source="RbEDVmLzTa3Dp0QBtbDg-19" target="RbEDVmLzTa3Dp0QBtbDg-20">
          <mxGeometry relative="1" as="geometry" />
        </mxCell>
        <mxCell id="RbEDVmLzTa3Dp0QBtbDg-19" value="dato = 9*i" style="whiteSpace=wrap;html=1;rounded=1;arcSize=14;strokeWidth=2;fillColor=#1ba1e2;fontColor=#ffffff;strokeColor=#006EAF;" vertex="1" parent="1">
          <mxGeometry x="192.5" y="540" width="75" height="30" as="geometry" />
        </mxCell>
        <mxCell id="RbEDVmLzTa3Dp0QBtbDg-20" value="CURSOR EN LA POSICION (1,1)" style="whiteSpace=wrap;html=1;rounded=1;arcSize=14;strokeWidth=2;fillColor=#1ba1e2;fontColor=#ffffff;strokeColor=#006EAF;" vertex="1" parent="1">
          <mxGeometry x="176.25" y="590" width="107.5" height="40" as="geometry" />
        </mxCell>
        <mxCell id="RbEDVmLzTa3Dp0QBtbDg-27" value="" style="edgeStyle=orthogonalEdgeStyle;rounded=0;orthogonalLoop=1;jettySize=auto;html=1;" edge="1" parent="1" source="RbEDVmLzTa3Dp0QBtbDg-22" target="RbEDVmLzTa3Dp0QBtbDg-26">
          <mxGeometry relative="1" as="geometry" />
        </mxCell>
        <mxCell id="RbEDVmLzTa3Dp0QBtbDg-22" value="MULTIPLICACIÓN DEL 9" style="strokeWidth=2;html=1;shape=mxgraph.flowchart.display;whiteSpace=wrap;fillColor=#fa6800;fontColor=#000000;strokeColor=#C73500;" vertex="1" parent="1">
          <mxGeometry x="145" y="660" width="170" height="50" as="geometry" />
        </mxCell>
        <mxCell id="RbEDVmLzTa3Dp0QBtbDg-25" style="edgeStyle=orthogonalEdgeStyle;rounded=0;orthogonalLoop=1;jettySize=auto;html=1;exitX=0.5;exitY=1;exitDx=0;exitDy=0;entryX=0.5;entryY=0;entryDx=0;entryDy=0;entryPerimeter=0;" edge="1" parent="1" source="RbEDVmLzTa3Dp0QBtbDg-20" target="RbEDVmLzTa3Dp0QBtbDg-22">
          <mxGeometry relative="1" as="geometry" />
        </mxCell>
        <mxCell id="RbEDVmLzTa3Dp0QBtbDg-26" value="RECORRER" style="shape=process;whiteSpace=wrap;html=1;backgroundOutline=1;strokeWidth=2;fillColor=#e3c800;fontColor=#000000;strokeColor=#B09500;" vertex="1" parent="1">
          <mxGeometry x="170" y="740" width="120" height="30" as="geometry" />
        </mxCell>
        <mxCell id="RbEDVmLzTa3Dp0QBtbDg-31" style="edgeStyle=orthogonalEdgeStyle;rounded=0;orthogonalLoop=1;jettySize=auto;html=1;exitX=0.5;exitY=1;exitDx=0;exitDy=0;exitPerimeter=0;entryX=0.5;entryY=0;entryDx=0;entryDy=0;" edge="1" parent="1" source="RbEDVmLzTa3Dp0QBtbDg-28" target="RbEDVmLzTa3Dp0QBtbDg-30">
          <mxGeometry relative="1" as="geometry" />
        </mxCell>
        <mxCell id="RbEDVmLzTa3Dp0QBtbDg-28" value="MOSTRAR VALOR dato" style="strokeWidth=2;html=1;shape=mxgraph.flowchart.display;whiteSpace=wrap;fillColor=#fa6800;fontColor=#000000;strokeColor=#C73500;" vertex="1" parent="1">
          <mxGeometry x="180" y="790" width="100" height="60" as="geometry" />
        </mxCell>
        <mxCell id="RbEDVmLzTa3Dp0QBtbDg-29" style="edgeStyle=orthogonalEdgeStyle;rounded=0;orthogonalLoop=1;jettySize=auto;html=1;exitX=0.5;exitY=1;exitDx=0;exitDy=0;entryX=0.5;entryY=0;entryDx=0;entryDy=0;entryPerimeter=0;" edge="1" parent="1" source="RbEDVmLzTa3Dp0QBtbDg-26" target="RbEDVmLzTa3Dp0QBtbDg-28">
          <mxGeometry relative="1" as="geometry" />
        </mxCell>
        <mxCell id="RbEDVmLzTa3Dp0QBtbDg-35" style="edgeStyle=orthogonalEdgeStyle;rounded=0;orthogonalLoop=1;jettySize=auto;html=1;exitX=0.5;exitY=1;exitDx=0;exitDy=0;entryX=0.5;entryY=0;entryDx=0;entryDy=0;" edge="1" parent="1" source="RbEDVmLzTa3Dp0QBtbDg-30" target="RbEDVmLzTa3Dp0QBtbDg-34">
          <mxGeometry relative="1" as="geometry" />
        </mxCell>
        <mxCell id="RbEDVmLzTa3Dp0QBtbDg-30" value="DELAY DE 500 MS" style="whiteSpace=wrap;html=1;rounded=1;arcSize=14;strokeWidth=2;fillColor=#1ba1e2;fontColor=#ffffff;strokeColor=#006EAF;" vertex="1" parent="1">
          <mxGeometry x="191.25" y="870" width="77.5" height="40" as="geometry" />
        </mxCell>
        <mxCell id="RbEDVmLzTa3Dp0QBtbDg-34" value="A" style="ellipse;whiteSpace=wrap;html=1;aspect=fixed;fillColor=#a0522d;fontColor=#ffffff;strokeColor=#6D1F00;" vertex="1" parent="1">
          <mxGeometry x="210" y="930" width="40" height="40" as="geometry" />
        </mxCell>
        <mxCell id="RbEDVmLzTa3Dp0QBtbDg-36" value="A" style="ellipse;whiteSpace=wrap;html=1;aspect=fixed;fillColor=#a0522d;fontColor=#ffffff;strokeColor=#6D1F00;" vertex="1" parent="1">
          <mxGeometry x="400" y="90" width="40" height="40" as="geometry" />
        </mxCell>
        <mxCell id="RbEDVmLzTa3Dp0QBtbDg-40" style="edgeStyle=orthogonalEdgeStyle;rounded=0;orthogonalLoop=1;jettySize=auto;html=1;exitX=0.5;exitY=1;exitDx=0;exitDy=0;exitPerimeter=0;entryX=0.5;entryY=0;entryDx=0;entryDy=0;" edge="1" parent="1" source="RbEDVmLzTa3Dp0QBtbDg-37" target="RbEDVmLzTa3Dp0QBtbDg-38">
          <mxGeometry relative="1" as="geometry" />
        </mxCell>
        <mxCell id="RbEDVmLzTa3Dp0QBtbDg-44" value="SI" style="edgeLabel;html=1;align=center;verticalAlign=middle;resizable=0;points=[];" vertex="1" connectable="0" parent="RbEDVmLzTa3Dp0QBtbDg-40">
          <mxGeometry x="-0.3014" relative="1" as="geometry">
            <mxPoint as="offset" />
          </mxGeometry>
        </mxCell>
        <mxCell id="RbEDVmLzTa3Dp0QBtbDg-49" style="edgeStyle=orthogonalEdgeStyle;rounded=0;orthogonalLoop=1;jettySize=auto;html=1;exitX=0;exitY=0.5;exitDx=0;exitDy=0;exitPerimeter=0;" edge="1" parent="1" source="RbEDVmLzTa3Dp0QBtbDg-37">
          <mxGeometry relative="1" as="geometry">
            <mxPoint x="420" y="340" as="targetPoint" />
            <Array as="points">
              <mxPoint x="350" y="180" />
              <mxPoint x="350" y="340" />
            </Array>
          </mxGeometry>
        </mxCell>
        <mxCell id="RbEDVmLzTa3Dp0QBtbDg-50" value="NO" style="edgeLabel;html=1;align=center;verticalAlign=middle;resizable=0;points=[];" vertex="1" connectable="0" parent="RbEDVmLzTa3Dp0QBtbDg-49">
          <mxGeometry x="-0.8655" relative="1" as="geometry">
            <mxPoint as="offset" />
          </mxGeometry>
        </mxCell>
        <mxCell id="RbEDVmLzTa3Dp0QBtbDg-37" value="i = 10 ?" style="strokeWidth=2;html=1;shape=mxgraph.flowchart.decision;whiteSpace=wrap;fillColor=#60a917;fontColor=#ffffff;strokeColor=#2D7600;" vertex="1" parent="1">
          <mxGeometry x="385" y="150" width="70" height="60" as="geometry" />
        </mxCell>
        <mxCell id="RbEDVmLzTa3Dp0QBtbDg-41" style="edgeStyle=orthogonalEdgeStyle;rounded=0;orthogonalLoop=1;jettySize=auto;html=1;exitX=0.5;exitY=1;exitDx=0;exitDy=0;entryX=0.5;entryY=0;entryDx=0;entryDy=0;" edge="1" parent="1" source="RbEDVmLzTa3Dp0QBtbDg-38" target="RbEDVmLzTa3Dp0QBtbDg-39">
          <mxGeometry relative="1" as="geometry" />
        </mxCell>
        <mxCell id="RbEDVmLzTa3Dp0QBtbDg-38" value="i = 0" style="whiteSpace=wrap;html=1;rounded=1;arcSize=14;strokeWidth=2;fillColor=#1ba1e2;fontColor=#ffffff;strokeColor=#006EAF;" vertex="1" parent="1">
          <mxGeometry x="382.5" y="240" width="75" height="30" as="geometry" />
        </mxCell>
        <mxCell id="RbEDVmLzTa3Dp0QBtbDg-48" style="edgeStyle=orthogonalEdgeStyle;rounded=0;orthogonalLoop=1;jettySize=auto;html=1;exitX=0.5;exitY=1;exitDx=0;exitDy=0;entryX=0.5;entryY=0;entryDx=0;entryDy=0;" edge="1" parent="1" source="RbEDVmLzTa3Dp0QBtbDg-39" target="RbEDVmLzTa3Dp0QBtbDg-47">
          <mxGeometry relative="1" as="geometry" />
        </mxCell>
        <mxCell id="RbEDVmLzTa3Dp0QBtbDg-39" value="dato = 0" style="whiteSpace=wrap;html=1;rounded=1;arcSize=14;strokeWidth=2;fillColor=#1ba1e2;fontColor=#ffffff;strokeColor=#006EAF;" vertex="1" parent="1">
          <mxGeometry x="382.5" y="290" width="75" height="30" as="geometry" />
        </mxCell>
        <mxCell id="RbEDVmLzTa3Dp0QBtbDg-42" style="edgeStyle=orthogonalEdgeStyle;rounded=0;orthogonalLoop=1;jettySize=auto;html=1;exitX=0.5;exitY=1;exitDx=0;exitDy=0;entryX=0.5;entryY=0;entryDx=0;entryDy=0;entryPerimeter=0;" edge="1" parent="1" source="RbEDVmLzTa3Dp0QBtbDg-36" target="RbEDVmLzTa3Dp0QBtbDg-37">
          <mxGeometry relative="1" as="geometry" />
        </mxCell>
        <mxCell id="RbEDVmLzTa3Dp0QBtbDg-46" style="edgeStyle=orthogonalEdgeStyle;rounded=0;orthogonalLoop=1;jettySize=auto;html=1;exitX=0;exitY=0.5;exitDx=0;exitDy=0;" edge="1" parent="1" source="RbEDVmLzTa3Dp0QBtbDg-45">
          <mxGeometry relative="1" as="geometry">
            <mxPoint x="230.0000000000001" y="324.82608695652175" as="targetPoint" />
          </mxGeometry>
        </mxCell>
        <mxCell id="RbEDVmLzTa3Dp0QBtbDg-45" value="B" style="ellipse;whiteSpace=wrap;html=1;aspect=fixed;fillColor=#a0522d;fontColor=#ffffff;strokeColor=#6D1F00;" vertex="1" parent="1">
          <mxGeometry x="284" y="310" width="30" height="30" as="geometry" />
        </mxCell>
        <mxCell id="RbEDVmLzTa3Dp0QBtbDg-47" value="B" style="ellipse;whiteSpace=wrap;html=1;aspect=fixed;fillColor=#a0522d;fontColor=#ffffff;strokeColor=#6D1F00;" vertex="1" parent="1">
          <mxGeometry x="405" y="355" width="30" height="30" as="geometry" />
        </mxCell>
        <mxCell id="RbEDVmLzTa3Dp0QBtbDg-51" value="RECORRER" style="strokeWidth=2;html=1;shape=mxgraph.flowchart.start_1;whiteSpace=wrap;fillColor=#d80073;fontColor=#ffffff;strokeColor=#A50040;" vertex="1" parent="1">
          <mxGeometry x="560" y="80" width="80" height="40" as="geometry" />
        </mxCell>
        <mxCell id="RbEDVmLzTa3Dp0QBtbDg-56" style="edgeStyle=orthogonalEdgeStyle;rounded=0;orthogonalLoop=1;jettySize=auto;html=1;exitX=0.5;exitY=1;exitDx=0;exitDy=0;exitPerimeter=0;entryX=0.5;entryY=0;entryDx=0;entryDy=0;" edge="1" parent="1" source="RbEDVmLzTa3Dp0QBtbDg-52" target="RbEDVmLzTa3Dp0QBtbDg-53">
          <mxGeometry relative="1" as="geometry" />
        </mxCell>
        <mxCell id="RbEDVmLzTa3Dp0QBtbDg-58" value="SI" style="edgeLabel;html=1;align=center;verticalAlign=middle;resizable=0;points=[];" vertex="1" connectable="0" parent="RbEDVmLzTa3Dp0QBtbDg-56">
          <mxGeometry x="-0.3014" relative="1" as="geometry">
            <mxPoint as="offset" />
          </mxGeometry>
        </mxCell>
        <mxCell id="RbEDVmLzTa3Dp0QBtbDg-69" style="edgeStyle=orthogonalEdgeStyle;rounded=0;orthogonalLoop=1;jettySize=auto;html=1;exitX=0;exitY=0.5;exitDx=0;exitDy=0;exitPerimeter=0;" edge="1" parent="1" source="RbEDVmLzTa3Dp0QBtbDg-52">
          <mxGeometry relative="1" as="geometry">
            <mxPoint x="600" y="340" as="targetPoint" />
            <Array as="points">
              <mxPoint x="530" y="180" />
              <mxPoint x="530" y="340" />
            </Array>
          </mxGeometry>
        </mxCell>
        <mxCell id="RbEDVmLzTa3Dp0QBtbDg-70" value="NO" style="edgeLabel;html=1;align=center;verticalAlign=middle;resizable=0;points=[];" vertex="1" connectable="0" parent="RbEDVmLzTa3Dp0QBtbDg-69">
          <mxGeometry x="-0.8655" y="-1" relative="1" as="geometry">
            <mxPoint as="offset" />
          </mxGeometry>
        </mxCell>
        <mxCell id="RbEDVmLzTa3Dp0QBtbDg-52" value="x&amp;lt;16 ?" style="strokeWidth=2;html=1;shape=mxgraph.flowchart.decision;whiteSpace=wrap;fillColor=#60a917;fontColor=#ffffff;strokeColor=#2D7600;" vertex="1" parent="1">
          <mxGeometry x="565" y="150" width="70" height="60" as="geometry" />
        </mxCell>
        <mxCell id="RbEDVmLzTa3Dp0QBtbDg-59" style="edgeStyle=orthogonalEdgeStyle;rounded=0;orthogonalLoop=1;jettySize=auto;html=1;exitX=0.5;exitY=1;exitDx=0;exitDy=0;entryX=0.5;entryY=0;entryDx=0;entryDy=0;" edge="1" parent="1" source="RbEDVmLzTa3Dp0QBtbDg-53" target="RbEDVmLzTa3Dp0QBtbDg-55">
          <mxGeometry relative="1" as="geometry" />
        </mxCell>
        <mxCell id="RbEDVmLzTa3Dp0QBtbDg-53" value="x = x+1" style="whiteSpace=wrap;html=1;rounded=1;arcSize=14;strokeWidth=2;fillColor=#1ba1e2;fontColor=#ffffff;strokeColor=#006EAF;" vertex="1" parent="1">
          <mxGeometry x="562.5" y="240" width="75" height="30" as="geometry" />
        </mxCell>
        <mxCell id="RbEDVmLzTa3Dp0QBtbDg-55" value="CURSOR EN LA POSICION (x,2)" style="whiteSpace=wrap;html=1;rounded=1;arcSize=14;strokeWidth=2;fillColor=#1ba1e2;fontColor=#ffffff;strokeColor=#006EAF;" vertex="1" parent="1">
          <mxGeometry x="546.25" y="285" width="107.5" height="40" as="geometry" />
        </mxCell>
        <mxCell id="RbEDVmLzTa3Dp0QBtbDg-60" style="edgeStyle=orthogonalEdgeStyle;rounded=0;orthogonalLoop=1;jettySize=auto;html=1;exitX=0.5;exitY=1;exitDx=0;exitDy=0;exitPerimeter=0;entryX=0.5;entryY=0;entryDx=0;entryDy=0;entryPerimeter=0;" edge="1" parent="1" source="RbEDVmLzTa3Dp0QBtbDg-51" target="RbEDVmLzTa3Dp0QBtbDg-52">
          <mxGeometry relative="1" as="geometry" />
        </mxCell>
        <mxCell id="RbEDVmLzTa3Dp0QBtbDg-63" style="edgeStyle=orthogonalEdgeStyle;rounded=0;orthogonalLoop=1;jettySize=auto;html=1;exitX=0.5;exitY=1;exitDx=0;exitDy=0;exitPerimeter=0;entryX=0.5;entryY=0;entryDx=0;entryDy=0;" edge="1" parent="1" source="RbEDVmLzTa3Dp0QBtbDg-61" target="RbEDVmLzTa3Dp0QBtbDg-62">
          <mxGeometry relative="1" as="geometry" />
        </mxCell>
        <mxCell id="RbEDVmLzTa3Dp0QBtbDg-64" value="SI" style="edgeLabel;html=1;align=center;verticalAlign=middle;resizable=0;points=[];" vertex="1" connectable="0" parent="RbEDVmLzTa3Dp0QBtbDg-63">
          <mxGeometry x="-0.15" relative="1" as="geometry">
            <mxPoint as="offset" />
          </mxGeometry>
        </mxCell>
        <mxCell id="RbEDVmLzTa3Dp0QBtbDg-72" style="edgeStyle=orthogonalEdgeStyle;rounded=0;orthogonalLoop=1;jettySize=auto;html=1;exitX=0;exitY=0.5;exitDx=0;exitDy=0;exitPerimeter=0;" edge="1" parent="1" source="RbEDVmLzTa3Dp0QBtbDg-61">
          <mxGeometry relative="1" as="geometry">
            <mxPoint x="600" y="560" as="targetPoint" />
            <Array as="points">
              <mxPoint x="520" y="390" />
              <mxPoint x="520" y="560" />
            </Array>
          </mxGeometry>
        </mxCell>
        <mxCell id="RbEDVmLzTa3Dp0QBtbDg-73" value="NO" style="edgeLabel;html=1;align=center;verticalAlign=middle;resizable=0;points=[];" vertex="1" connectable="0" parent="RbEDVmLzTa3Dp0QBtbDg-72">
          <mxGeometry x="-0.8673" y="2" relative="1" as="geometry">
            <mxPoint as="offset" />
          </mxGeometry>
        </mxCell>
        <mxCell id="RbEDVmLzTa3Dp0QBtbDg-61" value="x&amp;gt;=16 ?" style="strokeWidth=2;html=1;shape=mxgraph.flowchart.decision;whiteSpace=wrap;fillColor=#60a917;fontColor=#ffffff;strokeColor=#2D7600;" vertex="1" parent="1">
          <mxGeometry x="565" y="360" width="70" height="60" as="geometry" />
        </mxCell>
        <mxCell id="RbEDVmLzTa3Dp0QBtbDg-66" style="edgeStyle=orthogonalEdgeStyle;rounded=0;orthogonalLoop=1;jettySize=auto;html=1;exitX=0.5;exitY=1;exitDx=0;exitDy=0;entryX=0.5;entryY=0;entryDx=0;entryDy=0;" edge="1" parent="1" source="RbEDVmLzTa3Dp0QBtbDg-62" target="RbEDVmLzTa3Dp0QBtbDg-65">
          <mxGeometry relative="1" as="geometry" />
        </mxCell>
        <mxCell id="RbEDVmLzTa3Dp0QBtbDg-62" value="CURSOR EN LA POSICION (y,2)" style="whiteSpace=wrap;html=1;rounded=1;arcSize=14;strokeWidth=2;fillColor=#1ba1e2;fontColor=#ffffff;strokeColor=#006EAF;" vertex="1" parent="1">
          <mxGeometry x="546.25" y="460" width="107.5" height="40" as="geometry" />
        </mxCell>
        <mxCell id="RbEDVmLzTa3Dp0QBtbDg-65" value="y = y-1" style="whiteSpace=wrap;html=1;rounded=1;arcSize=14;strokeWidth=2;fillColor=#1ba1e2;fontColor=#ffffff;strokeColor=#006EAF;" vertex="1" parent="1">
          <mxGeometry x="562.5" y="520" width="75" height="30" as="geometry" />
        </mxCell>
        <mxCell id="RbEDVmLzTa3Dp0QBtbDg-77" style="edgeStyle=orthogonalEdgeStyle;rounded=0;orthogonalLoop=1;jettySize=auto;html=1;exitX=0.5;exitY=1;exitDx=0;exitDy=0;exitPerimeter=0;entryX=0.5;entryY=0;entryDx=0;entryDy=0;" edge="1" parent="1" source="RbEDVmLzTa3Dp0QBtbDg-67" target="RbEDVmLzTa3Dp0QBtbDg-74">
          <mxGeometry relative="1" as="geometry" />
        </mxCell>
        <mxCell id="RbEDVmLzTa3Dp0QBtbDg-80" value="SI" style="edgeLabel;html=1;align=center;verticalAlign=middle;resizable=0;points=[];" vertex="1" connectable="0" parent="RbEDVmLzTa3Dp0QBtbDg-77">
          <mxGeometry x="-0.3304" y="1" relative="1" as="geometry">
            <mxPoint as="offset" />
          </mxGeometry>
        </mxCell>
        <mxCell id="RbEDVmLzTa3Dp0QBtbDg-85" style="edgeStyle=orthogonalEdgeStyle;rounded=0;orthogonalLoop=1;jettySize=auto;html=1;exitX=0;exitY=0.5;exitDx=0;exitDy=0;exitPerimeter=0;" edge="1" parent="1" source="RbEDVmLzTa3Dp0QBtbDg-67">
          <mxGeometry relative="1" as="geometry">
            <mxPoint x="600" y="840" as="targetPoint" />
            <Array as="points">
              <mxPoint x="530" y="610" />
              <mxPoint x="530" y="840" />
            </Array>
          </mxGeometry>
        </mxCell>
        <mxCell id="RbEDVmLzTa3Dp0QBtbDg-86" value="NO" style="edgeLabel;html=1;align=center;verticalAlign=middle;resizable=0;points=[];" vertex="1" connectable="0" parent="RbEDVmLzTa3Dp0QBtbDg-85">
          <mxGeometry x="-0.9092" relative="1" as="geometry">
            <mxPoint as="offset" />
          </mxGeometry>
        </mxCell>
        <mxCell id="RbEDVmLzTa3Dp0QBtbDg-67" value="y&amp;lt;=0 ?" style="strokeWidth=2;html=1;shape=mxgraph.flowchart.decision;whiteSpace=wrap;fillColor=#60a917;fontColor=#ffffff;strokeColor=#2D7600;" vertex="1" parent="1">
          <mxGeometry x="565" y="580" width="70" height="60" as="geometry" />
        </mxCell>
        <mxCell id="RbEDVmLzTa3Dp0QBtbDg-68" style="edgeStyle=orthogonalEdgeStyle;rounded=0;orthogonalLoop=1;jettySize=auto;html=1;exitX=0.5;exitY=1;exitDx=0;exitDy=0;entryX=0.5;entryY=0;entryDx=0;entryDy=0;entryPerimeter=0;" edge="1" parent="1" source="RbEDVmLzTa3Dp0QBtbDg-55" target="RbEDVmLzTa3Dp0QBtbDg-61">
          <mxGeometry relative="1" as="geometry" />
        </mxCell>
        <mxCell id="RbEDVmLzTa3Dp0QBtbDg-71" style="edgeStyle=orthogonalEdgeStyle;rounded=0;orthogonalLoop=1;jettySize=auto;html=1;exitX=0.5;exitY=1;exitDx=0;exitDy=0;entryX=0.5;entryY=0;entryDx=0;entryDy=0;entryPerimeter=0;" edge="1" parent="1" source="RbEDVmLzTa3Dp0QBtbDg-65" target="RbEDVmLzTa3Dp0QBtbDg-67">
          <mxGeometry relative="1" as="geometry" />
        </mxCell>
        <mxCell id="RbEDVmLzTa3Dp0QBtbDg-81" style="edgeStyle=orthogonalEdgeStyle;rounded=0;orthogonalLoop=1;jettySize=auto;html=1;exitX=0.5;exitY=1;exitDx=0;exitDy=0;entryX=0.5;entryY=0;entryDx=0;entryDy=0;" edge="1" parent="1" source="RbEDVmLzTa3Dp0QBtbDg-74" target="RbEDVmLzTa3Dp0QBtbDg-75">
          <mxGeometry relative="1" as="geometry" />
        </mxCell>
        <mxCell id="RbEDVmLzTa3Dp0QBtbDg-74" value="x = 1" style="whiteSpace=wrap;html=1;rounded=1;arcSize=14;strokeWidth=2;fillColor=#1ba1e2;fontColor=#ffffff;strokeColor=#006EAF;" vertex="1" parent="1">
          <mxGeometry x="562.5" y="670" width="75" height="30" as="geometry" />
        </mxCell>
        <mxCell id="RbEDVmLzTa3Dp0QBtbDg-82" style="edgeStyle=orthogonalEdgeStyle;rounded=0;orthogonalLoop=1;jettySize=auto;html=1;exitX=0.5;exitY=1;exitDx=0;exitDy=0;entryX=0.5;entryY=0;entryDx=0;entryDy=0;" edge="1" parent="1" source="RbEDVmLzTa3Dp0QBtbDg-75" target="RbEDVmLzTa3Dp0QBtbDg-76">
          <mxGeometry relative="1" as="geometry" />
        </mxCell>
        <mxCell id="RbEDVmLzTa3Dp0QBtbDg-75" value="y = 16" style="whiteSpace=wrap;html=1;rounded=1;arcSize=14;strokeWidth=2;fillColor=#1ba1e2;fontColor=#ffffff;strokeColor=#006EAF;" vertex="1" parent="1">
          <mxGeometry x="565" y="720" width="75" height="30" as="geometry" />
        </mxCell>
        <mxCell id="RbEDVmLzTa3Dp0QBtbDg-76" value="CURSOR EN LA POSICION (x,2)" style="whiteSpace=wrap;html=1;rounded=1;arcSize=14;strokeWidth=2;fillColor=#1ba1e2;fontColor=#ffffff;strokeColor=#006EAF;" vertex="1" parent="1">
          <mxGeometry x="548.75" y="780" width="107.5" height="40" as="geometry" />
        </mxCell>
        <mxCell id="RbEDVmLzTa3Dp0QBtbDg-83" value="VOLVER DE FUNCIÓN" style="strokeWidth=2;html=1;shape=mxgraph.flowchart.start_1;whiteSpace=wrap;fillColor=#d80073;fontColor=#ffffff;strokeColor=#A50040;" vertex="1" parent="1">
          <mxGeometry x="557.5" y="860" width="90" height="50" as="geometry" />
        </mxCell>
        <mxCell id="RbEDVmLzTa3Dp0QBtbDg-84" style="edgeStyle=orthogonalEdgeStyle;rounded=0;orthogonalLoop=1;jettySize=auto;html=1;exitX=0.5;exitY=1;exitDx=0;exitDy=0;entryX=0.5;entryY=0;entryDx=0;entryDy=0;entryPerimeter=0;" edge="1" parent="1" source="RbEDVmLzTa3Dp0QBtbDg-76" target="RbEDVmLzTa3Dp0QBtbDg-83">
          <mxGeometry relative="1" as="geometry" />
        </mxCell>
      </root>
    </mxGraphModel>
  </diagram>
</mxfile>
